<?xml version="1.0" encoding="UTF-8" standalone="no"?><!DOCTYPE svg PUBLIC "-//W3C//DTD SVG 1.1//EN" "http://www.w3.org/Graphics/SVG/1.1/DTD/svg11.dtd"><svg width="100%" height="100%" viewBox="0 0 2347 907" version="1.1" xmlns="http://www.w3.org/2000/svg" xmlns:xlink="http://www.w3.org/1999/xlink" xml:space="preserve" style="fill-rule:evenodd;clip-rule:evenodd;stroke-linejoin:round;stroke-miterlimit:1.41421;"><rect id="アートボード1" x="0" y="0" width="2346.67" height="906.667" style="fill:none;"/><clipPath id="_clip1"><rect id="アートボード11" x="0" y="0" width="2346.67" height="906.667"/></clipPath><g clip-path="url(#_clip1)"><circle cx="1933.33" cy="253.333" r="13.333" style="fill:#fff;"/><circle cx="1533.33" cy="253.333" r="13.333" style="fill:#fff;"/><circle cx="1933.33" cy="13.333" r="13.333" style="fill:#fff;"/><circle cx="1933.33" cy="333.333" r="13.333" style="fill:#fff;"/><circle cx="1533.33" cy="333.333" r="13.333" style="fill:#fff;"/><circle cx="2333.33" cy="333.333" r="13.333" style="fill:#fff;"/><circle cx="1933.33" cy="93.333" r="13.333" style="fill:#fff;"/><circle cx="1933.33" cy="413.333" r="13.333" style="fill:#fff;"/><circle cx="1533.33" cy="413.333" r="13.333" style="fill:#fff;"/><circle cx="2333.33" cy="413.333" r="13.333" style="fill:#fff;"/><circle cx="1933.33" cy="173.333" r="13.333" style="fill:#fff;"/><circle cx="1933.33" cy="493.333" r="13.333" style="fill:#fff;"/><circle cx="1533.33" cy="493.333" r="13.333" style="fill:#fff;"/><circle cx="2333.33" cy="493.333" r="13.333" style="fill:#fff;"/><circle cx="1133.33" cy="573.333" r="13.333" style="fill:#fff;"/><circle cx="1933.33" cy="573.333" r="13.333" style="fill:#fff;"/><circle cx="733.333" cy="573.333" r="13.333" style="fill:#fff;"/><circle cx="1533.33" cy="573.333" r="13.333" style="fill:#fff;"/><circle cx="2333.33" cy="573.333" r="13.333" style="fill:#fff;"/><circle cx="1133.33" cy="653.333" r="13.333" style="fill:#fff;"/><circle cx="1933.33" cy="653.333" r="13.333" style="fill:#fff;"/><circle cx="733.333" cy="653.333" r="13.333" style="fill:#fff;"/><circle cx="1533.33" cy="653.333" r="13.333" style="fill:#fff;"/><circle cx="2333.33" cy="653.333" r="13.333" style="fill:#fff;"/><circle cx="1133.33" cy="733.333" r="13.333" style="fill:#fff;"/><circle cx="1933.33" cy="733.333" r="13.333" style="fill:#fff;"/><circle cx="733.333" cy="733.333" r="13.333" style="fill:#fff;"/><circle cx="1533.33" cy="733.333" r="13.333" style="fill:#fff;"/><circle cx="2333.33" cy="733.333" r="13.333" style="fill:#fff;"/><circle cx="333.333" cy="813.333" r="13.333" style="fill:#fff;"/><circle cx="1133.33" cy="813.333" r="13.333" style="fill:#fff;"/><circle cx="1933.33" cy="813.333" r="13.333" style="fill:#fff;"/><circle cx="733.333" cy="813.333" r="13.333" style="fill:#fff;"/><circle cx="1533.33" cy="813.333" r="13.333" style="fill:#fff;"/><circle cx="2333.33" cy="813.333" r="13.333" style="fill:#fff;"/><circle cx="333.333" cy="893.333" r="13.333" style="fill:#fff;"/><circle cx="1133.33" cy="893.333" r="13.333" style="fill:#fff;"/><circle cx="1933.33" cy="893.333" r="13.333" style="fill:#fff;"/><circle cx="733.333" cy="893.333" r="13.333" style="fill:#fff;"/><circle cx="1533.33" cy="893.333" r="13.333" style="fill:#fff;"/><circle cx="2333.33" cy="893.333" r="13.333" style="fill:#fff;"/><circle cx="1853.33" cy="253.333" r="13.333" style="fill:#fff;"/><circle cx="2253.33" cy="253.333" r="13.333" style="fill:#fff;"/><circle cx="1853.33" cy="13.333" r="13.333" style="fill:#fff;"/><circle cx="1853.33" cy="333.333" r="13.333" style="fill:#fff;"/><circle cx="2253.33" cy="333.333" r="13.333" style="fill:#fff;"/><circle cx="1853.33" cy="93.333" r="13.333" style="fill:#fff;"/><circle cx="1853.33" cy="413.333" r="13.333" style="fill:#fff;"/><circle cx="1453.33" cy="413.333" r="13.333" style="fill:#fff;"/><circle cx="2253.33" cy="413.333" r="13.333" style="fill:#fff;"/><circle cx="1853.33" cy="173.333" r="13.333" style="fill:#fff;"/><circle cx="1053.33" cy="493.333" r="13.333" style="fill:#fff;"/><circle cx="1853.33" cy="493.333" r="13.333" style="fill:#fff;"/><circle cx="1453.33" cy="493.333" r="13.333" style="fill:#fff;"/><circle cx="2253.33" cy="493.333" r="13.333" style="fill:#fff;"/><circle cx="1053.33" cy="573.333" r="13.333" style="fill:#fff;"/><circle cx="1853.33" cy="573.333" r="13.333" style="fill:#fff;"/><circle cx="1453.33" cy="573.333" r="13.333" style="fill:#fff;"/><circle cx="2253.33" cy="573.333" r="13.333" style="fill:#fff;"/><circle cx="1053.33" cy="653.333" r="13.333" style="fill:#fff;"/><circle cx="1853.33" cy="653.333" r="13.333" style="fill:#fff;"/><circle cx="653.333" cy="653.333" r="13.333" style="fill:#fff;"/><circle cx="1453.33" cy="653.333" r="13.333" style="fill:#fff;"/><circle cx="2253.33" cy="653.333" r="13.333" style="fill:#fff;"/><circle cx="1053.33" cy="733.333" r="13.333" style="fill:#fff;"/><circle cx="1853.33" cy="733.333" r="13.333" style="fill:#fff;"/><circle cx="653.333" cy="733.333" r="13.333" style="fill:#fff;"/><circle cx="1453.33" cy="733.333" r="13.333" style="fill:#fff;"/><circle cx="2253.33" cy="733.333" r="13.333" style="fill:#fff;"/><circle cx="253.333" cy="813.333" r="13.333" style="fill:#fff;"/><circle cx="1053.33" cy="813.333" r="13.333" style="fill:#fff;"/><circle cx="1853.33" cy="813.333" r="13.333" style="fill:#fff;"/><circle cx="653.333" cy="813.333" r="13.333" style="fill:#fff;"/><circle cx="1453.33" cy="813.333" r="13.333" style="fill:#fff;"/><circle cx="2253.33" cy="813.333" r="13.333" style="fill:#fff;"/><circle cx="253.333" cy="893.333" r="13.333" style="fill:#fff;"/><circle cx="1053.33" cy="893.333" r="13.333" style="fill:#fff;"/><circle cx="1853.33" cy="893.333" r="13.333" style="fill:#fff;"/><circle cx="653.333" cy="893.333" r="13.333" style="fill:#fff;"/><circle cx="1453.33" cy="893.333" r="13.333" style="fill:#fff;"/><circle cx="2253.33" cy="893.333" r="13.333" style="fill:#fff;"/><circle cx="1773.33" cy="253.333" r="13.333" style="fill:#fff;"/><circle cx="2173.33" cy="253.333" r="13.333" style="fill:#fff;"/><circle cx="1773.33" cy="13.333" r="13.333" style="fill:#fff;"/><circle cx="1773.33" cy="333.333" r="13.333" style="fill:#fff;"/><circle cx="2173.33" cy="333.333" r="13.333" style="fill:#fff;"/><circle cx="1773.33" cy="93.333" r="13.333" style="fill:#fff;"/><circle cx="973.333" cy="413.333" r="13.333" style="fill:#fff;"/><circle cx="1773.33" cy="413.333" r="13.333" style="fill:#fff;"/><circle cx="2173.33" cy="413.333" r="13.333" style="fill:#fff;"/><circle cx="1773.33" cy="173.333" r="13.333" style="fill:#fff;"/><circle cx="2173.33" cy="173.333" r="13.333" style="fill:#fff;"/><circle cx="973.333" cy="493.333" r="13.333" style="fill:#fff;"/><circle cx="1773.33" cy="493.333" r="13.333" style="fill:#fff;"/><circle cx="1373.33" cy="493.333" r="13.333" style="fill:#fff;"/><circle cx="2173.33" cy="493.333" r="13.333" style="fill:#fff;"/><circle cx="973.333" cy="573.333" r="13.333" style="fill:#fff;"/><circle cx="1773.33" cy="573.333" r="13.333" style="fill:#fff;"/><circle cx="1373.33" cy="573.333" r="13.333" style="fill:#fff;"/><circle cx="2173.33" cy="573.333" r="13.333" style="fill:#fff;"/><circle cx="973.333" cy="653.333" r="13.333" style="fill:#fff;"/><circle cx="1773.33" cy="653.333" r="13.333" style="fill:#fff;"/><circle cx="1373.33" cy="653.333" r="13.333" style="fill:#fff;"/><circle cx="2173.33" cy="653.333" r="13.333" style="fill:#fff;"/><circle cx="973.333" cy="733.333" r="13.333" style="fill:#fff;"/><circle cx="1773.33" cy="733.333" r="13.333" style="fill:#fff;"/><circle cx="573.333" cy="733.333" r="13.333" style="fill:#fff;"/><circle cx="1373.33" cy="733.333" r="13.333" style="fill:#fff;"/><circle cx="2173.33" cy="733.333" r="13.333" style="fill:#fff;"/><circle cx="173.333" cy="813.333" r="13.333" style="fill:#fff;"/><circle cx="93.333" cy="813.333" r="13.333" style="fill:#fff;"/><circle cx="973.333" cy="813.333" r="13.333" style="fill:#fff;"/><circle cx="1773.33" cy="813.333" r="13.333" style="fill:#fff;"/><circle cx="573.333" cy="813.333" r="13.333" style="fill:#fff;"/><circle cx="1373.33" cy="813.333" r="13.333" style="fill:#fff;"/><circle cx="2173.33" cy="813.333" r="13.333" style="fill:#fff;"/><circle cx="173.333" cy="893.333" r="13.333" style="fill:#fff;"/><circle cx="973.333" cy="893.333" r="13.333" style="fill:#fff;"/><circle cx="1773.33" cy="893.333" r="13.333" style="fill:#fff;"/><circle cx="573.333" cy="893.333" r="13.333" style="fill:#fff;"/><circle cx="1373.33" cy="893.333" r="13.333" style="fill:#fff;"/><circle cx="2173.33" cy="893.333" r="13.333" style="fill:#fff;"/><circle cx="1693.33" cy="253.333" r="13.333" style="fill:#fff;"/><circle cx="2093.33" cy="253.333" r="13.333" style="fill:#fff;"/><circle cx="1693.33" cy="333.333" r="13.333" style="fill:#fff;"/><circle cx="2093.33" cy="333.333" r="13.333" style="fill:#fff;"/><circle cx="1693.33" cy="93.333" r="13.333" style="fill:#fff;"/><circle cx="2093.33" cy="93.333" r="13.333" style="fill:#fff;"/><circle cx="893.333" cy="413.333" r="13.333" style="fill:#fff;"/><circle cx="1693.33" cy="413.333" r="13.333" style="fill:#fff;"/><circle cx="2093.33" cy="413.333" r="13.333" style="fill:#fff;"/><circle cx="1693.33" cy="173.333" r="13.333" style="fill:#fff;"/><circle cx="2093.33" cy="173.333" r="13.333" style="fill:#fff;"/><circle cx="893.333" cy="493.333" r="13.333" style="fill:#fff;"/><circle cx="1693.33" cy="493.333" r="13.333" style="fill:#fff;"/><circle cx="2093.33" cy="493.333" r="13.333" style="fill:#fff;"/><circle cx="893.333" cy="573.333" r="13.333" style="fill:#fff;"/><circle cx="1693.33" cy="573.333" r="13.333" style="fill:#fff;"/><circle cx="1293.33" cy="573.333" r="13.333" style="fill:#fff;"/><circle cx="2093.33" cy="573.333" r="13.333" style="fill:#fff;"/><circle cx="893.333" cy="653.333" r="13.333" style="fill:#fff;"/><circle cx="1693.33" cy="653.333" r="13.333" style="fill:#fff;"/><circle cx="1293.33" cy="653.333" r="13.333" style="fill:#fff;"/><circle cx="2093.33" cy="653.333" r="13.333" style="fill:#fff;"/><circle cx="893.333" cy="733.333" r="13.333" style="fill:#fff;"/><circle cx="1693.33" cy="733.333" r="13.333" style="fill:#fff;"/><circle cx="493.333" cy="733.333" r="13.333" style="fill:#fff;"/><circle cx="1293.33" cy="733.333" r="13.333" style="fill:#fff;"/><circle cx="2093.33" cy="733.333" r="13.333" style="fill:#fff;"/><circle cx="893.333" cy="813.333" r="13.333" style="fill:#fff;"/><circle cx="1693.33" cy="813.333" r="13.333" style="fill:#fff;"/><circle cx="493.333" cy="813.333" r="13.333" style="fill:#fff;"/><circle cx="1293.33" cy="813.333" r="13.333" style="fill:#fff;"/><circle cx="2093.33" cy="813.333" r="13.333" style="fill:#fff;"/><circle cx="93.333" cy="893.333" r="13.333" style="fill:#fff;"/><circle cx="893.333" cy="893.333" r="13.333" style="fill:#fff;"/><circle cx="1693.33" cy="893.333" r="13.333" style="fill:#fff;"/><circle cx="493.333" cy="893.333" r="13.333" style="fill:#fff;"/><circle cx="1293.33" cy="893.333" r="13.333" style="fill:#fff;"/><circle cx="2093.33" cy="893.333" r="13.333" style="fill:#fff;"/><circle cx="1613.33" cy="253.333" r="13.333" style="fill:#fff;"/><circle cx="2013.33" cy="253.333" r="13.333" style="fill:#fff;"/><circle cx="1613.33" cy="333.333" r="13.333" style="fill:#fff;"/><circle cx="2013.33" cy="333.333" r="13.333" style="fill:#fff;"/><circle cx="2013.33" cy="93.333" r="13.333" style="fill:#fff;"/><circle cx="1613.33" cy="413.333" r="13.333" style="fill:#fff;"/><circle cx="2013.33" cy="413.333" r="13.333" style="fill:#fff;"/><circle cx="1613.33" cy="173.333" r="13.333" style="fill:#fff;"/><circle cx="2013.33" cy="173.333" r="13.333" style="fill:#fff;"/><circle cx="813.333" cy="493.333" r="13.333" style="fill:#fff;"/><circle cx="1613.33" cy="493.333" r="13.333" style="fill:#fff;"/><circle cx="2013.33" cy="493.333" r="13.333" style="fill:#fff;"/><circle cx="813.333" cy="573.333" r="13.333" style="fill:#fff;"/><circle cx="1613.33" cy="573.333" r="13.333" style="fill:#fff;"/><circle cx="1213.33" cy="573.333" r="13.333" style="fill:#fff;"/><circle cx="2013.33" cy="573.333" r="13.333" style="fill:#fff;"/><circle cx="813.333" cy="653.333" r="13.333" style="fill:#fff;"/><circle cx="1613.33" cy="653.333" r="13.333" style="fill:#fff;"/><circle cx="1213.33" cy="653.333" r="13.333" style="fill:#fff;"/><circle cx="2013.33" cy="653.333" r="13.333" style="fill:#fff;"/><circle cx="813.333" cy="733.333" r="13.333" style="fill:#fff;"/><circle cx="1613.33" cy="733.333" r="13.333" style="fill:#fff;"/><circle cx="1213.33" cy="733.333" r="13.333" style="fill:#fff;"/><circle cx="2013.33" cy="733.333" r="13.333" style="fill:#fff;"/><circle cx="813.333" cy="813.333" r="13.333" style="fill:#fff;"/><circle cx="1613.33" cy="813.333" r="13.333" style="fill:#fff;"/><circle cx="413.333" cy="813.333" r="13.333" style="fill:#fff;"/><circle cx="1213.33" cy="813.333" r="13.333" style="fill:#fff;"/><circle cx="2013.33" cy="813.333" r="13.333" style="fill:#fff;"/><circle cx="13.333" cy="893.333" r="13.333" style="fill:#fff;"/><circle cx="813.333" cy="893.333" r="13.333" style="fill:#fff;"/><circle cx="1613.33" cy="893.333" r="13.333" style="fill:#fff;"/><circle cx="413.333" cy="893.333" r="13.333" style="fill:#fff;"/><circle cx="1213.33" cy="893.333" r="13.333" style="fill:#fff;"/><circle cx="2013.33" cy="893.333" r="13.333" style="fill:#fff;"/></g></svg>